<svg fill="#FFFFFF" width="800px" height="800px" viewBox="0 0 26 26" xmlns="http://www.w3.org/2000/svg">
  <path d="M 12.985 0.501 C 12.985 0.501 12.673 12.451 12.544 17.355 L 10.792 14.794 L 11.919 17.89 L 8.427 18.398 L 11.919 18.905 L 10.569 21.55 L 12.493 19.53 C 12.393 23.368 12.37 24.312 12.37 24.312 C 12.37 24.312 3.757 20.312 8.544 11.474 C 8.544 11.474 2.574 4.883 7.981 0.833 C 7.981 0.833 -1.252 6.409 4.606 15.982 C 4.606 15.982 -0.237 11.251 2.296 6.47 C 2.296 6.47 -2.094 12.662 3.257 19.474 C 3.257 19.474 1.795 18.577 0.501 15.14 C 0.501 15.14 1.443 25.366 12.886 25.499 L 13.114 25.499 C 24.55 25.367 25.499 15.142 25.499 15.142 C 24.182 18.573 22.716 19.476 22.716 19.476 C 28.066 12.664 23.675 6.472 23.675 6.472 C 26.208 11.259 21.364 15.983 21.364 15.983 C 27.222 6.415 17.989 0.837 17.989 0.837 C 23.395 4.893 17.427 11.476 17.427 11.476 C 22.214 20.313 13.6 24.314 13.6 24.314 C 13.6 24.314 13.578 23.37 13.477 19.532 C 13.717 19.783 15.401 21.552 15.401 21.552 L 14.052 18.907 L 17.546 18.399 L 14.052 17.892 L 15.179 14.796 L 13.427 17.357 C 13.303 12.463 12.991 0.601 12.985 0.501 Z"></path>
</svg>